<svg xmlns="http://www.w3.org/2000/svg" width="804" height="209" fill="none" viewBox="0 0 804 209"><g filter="url(#filter0_d_3_41)"><path stroke="#000" stroke-linecap="round" stroke-width="3" d="M6 118.132C23.1118 118.132 40.6188 119.519 57.6527 118.02C85.4126 115.578 111.446 105.714 134.434 89.2474C146.892 80.3232 164.202 64.3045 173.952 52.3334C178.916 46.2381 206.076 13.2009 188.073 3.65369C177.396 -2.00849 162.051 8.26936 154.891 13.4677C144.628 20.9186 135.582 30.2867 131.105 42.6866C125.99 56.8511 134.994 71.9662 137.441 85.7344C145.115 128.925 129.375 177.529 89.3316 196.532C78.0462 201.888 53.2434 198.794 46 188.391C42.2464 183 61.5914 186.208 64 186C72.0347 185.305 76.0989 183.204 83.4791 180.25C103.844 172.099 123.796 163.585 142.649 152.035C170.959 134.69 192.124 110.844 212.074 84.0058C223.027 69.2703 233.302 53.9258 242.679 38.0585C247.327 30.1926 261.916 7.29124 255.726 13.9138C234.2 36.9465 215.748 69.0529 197 94.712C188.189 106.77 179 118.5 171 123.5C165 130 162 133 159 135.529C157 138 150.144 141.376 149.683 145.12C149.396 147.445 154.415 145.914 156.448 144.897C164.867 140.688 175.705 132.781 183.08 127.611C191.944 121.397 201.497 114.089 211 108.764C216.095 105.909 224.479 101.487 230.813 102.519C235.6 103.298 233.856 114.901 233.497 117.63C231.952 129.398 226.185 137.288 220.128 146.793C217.986 150.155 216.273 153.685 214.544 157.276C214.52 157.326 213.518 159.06 214.222 158.838C217.908 157.672 222.092 151.768 224.746 149.358C237.452 137.82 251.113 128.217 267.968 124.823C278.543 122.694 293.651 124.744 300.614 114.117C302.229 111.651 307.726 96.2393 301.956 94.712C293.806 92.5546 281.451 99.2251 275.324 103.857C265.292 111.441 260.68 122.979 260.344 135.529C260.262 138.596 261.355 145.86 264.5 146.793C269.279 151.477 268.39 152.704 273 154.488C275.727 156.954 285.851 156.568 290 154.488C297.987 150.484 303.5 148.524 310.547 142.89C321.617 134.039 329.059 118.576 334.816 105.976C345.755 82.0364 358.335 58.9081 366.656 34C376.292 5.15739 343.43 90.2615 332.991 118.801C330.272 126.233 326.801 133.475 324.937 141.217C324.633 142.479 323.659 147.408 324.185 142.221C325.609 128.175 328.777 114.444 343.139 110.716C351.969 108.423 366.305 104.186 374 110.716C375.622 112.092 375.346 113.795 374 116C372.278 118.82 373.702 118.911 371.811 122.648C368.602 128.991 367.724 136.854 366.656 143.838C366.592 144.262 364.855 149.74 365.905 146.905C367.02 143.892 369.209 143.526 371.596 142.109C375.206 139.967 377.782 133.691 380.885 130.734C387.695 124.243 409.157 104.402 418 102.519C426.843 100.635 423.5 98.2807 429.423 99.1729C436.777 95.5949 449.301 99.1327 457.505 98.2807C459.571 98.0662 473.484 98.5503 472.807 99.1729C467.888 103.703 461.379 106.77 456.163 110.994C447.141 118.302 438.853 126.405 429.423 133.187C421.001 139.246 413.052 144.857 406.121 152.815C399.344 160.597 405.907 159.476 412.94 159.116C424.829 158.509 449.825 159.73 456.163 156.273C462.5 152.815 472.807 152.035 481 130.567C490.87 126.895 495.139 123.31 505.238 120.53C513.496 118.256 521.177 114.309 529.668 112.946C531.528 112.648 545.854 111.143 533.266 112.388C522.318 113.471 511.982 117.273 502.661 123.373C495.076 128.337 490.92 135.018 488.701 144.005C487.142 150.316 483.909 163.049 491.17 167.202C502.155 173.484 521.244 166.451 525.695 154.544C527.968 148.464 526.614 141.217 527.091 134.86C527.496 129.47 529.053 124.328 530.903 119.303C530.991 119.065 528.231 128.502 527.628 130.845C524.972 141.16 528.01 151.869 530.474 161.96C531.317 165.416 533.373 170.999 536.273 165.083C541.569 154.274 542.8 142.836 551.092 133.355C558.674 124.685 568.55 122.673 579.12 120.585C589.564 118.523 600.031 114.67 610.691 114.117C612.872 114.004 619.425 114.117 617.242 114.117C611.192 114.117 605.143 114.117 599.094 114.117C586.119 114.117 569.844 115.325 564.784 130.567C561.027 141.881 557.598 164.622 571.71 169.878C578.574 172.435 586.534 172.404 593.724 172.332C605.303 172.216 608.833 167.35 613.376 156.273C620.046 140.009 621.027 123.288 622.182 105.864C623.53 85.5255 628.5 75 635.5 54C638.5 43.5 657.394 1.38137 656 12C655.281 17.4795 641 49.5 639.5 54C633.996 70.5114 630.979 70.5 627 86.5C626.631 107.4 623.945 123.21 624.651 144.117C624.8 148.524 624.092 156.75 628.947 159.061C634.536 161.721 643.503 161.013 646.451 154.6C649.262 148.483 646.656 135.066 651.82 130.734C655.155 127.936 657.013 122.147 661.861 122.147C667.105 122.147 672.349 122.147 677.593 122.147C682.166 122.147 688.008 123.106 692.412 121.477C695.462 120.349 692.849 116.338 692.197 114.452C690.13 108.47 682.5 100.48 679 96C670.5 85.121 669.337 82.0458 669.5 73.5C669.692 63.426 688.626 63.8694 695.5 68.5C701.387 72.4657 707.152 79.1733 707.661 85.121C708.114 90.4207 719.66 70.227 724.735 69.5C731.5 65 735.649 64.4328 742.5 71C748.343 76.6018 737.329 93.9891 733.5 95.5C729.5 100.5 728 100 724.735 103C720.926 106.5 710.5 112 705.352 116.459C702.629 122.798 701.589 121.779 710.5 122.147C716.007 122.374 719.074 120.697 724.735 121.477C730.353 120.441 735.444 120.837 741.058 121.031C760.214 121.693 798.456 123.5 798.456 123.5" shape-rendering="crispEdges"/></g><defs><filter id="filter0_d_3_41" width="803.456" height="208.116" x=".5" y=".5" color-interpolation-filters="sRGB" filterUnits="userSpaceOnUse"><feFlood flood-opacity="0" result="BackgroundImageFix"/><feColorMatrix in="SourceAlpha" result="hardAlpha" type="matrix" values="0 0 0 0 0 0 0 0 0 0 0 0 0 0 0 0 0 0 127 0"/><feOffset dy="4"/><feGaussianBlur stdDeviation="2"/><feComposite in2="hardAlpha" operator="out"/><feColorMatrix type="matrix" values="0 0 0 0 0 0 0 0 0 0 0 0 0 0 0 0 0 0 0.25 0"/><feBlend in2="BackgroundImageFix" mode="normal" result="effect1_dropShadow_3_41"/><feBlend in="SourceGraphic" in2="effect1_dropShadow_3_41" mode="normal" result="shape"/></filter></defs></svg>