<svg width="246" height="97" viewBox="0 0 246 97" fill="none" xmlns="http://www.w3.org/2000/svg">
<path d="M2 62.5001C29.9657 59.0811 56.8603 53.8157 84.0625 46.1876C107.797 39.5318 125.799 33.7399 148.125 24.2501C151.881 22.6535 168.37 15.9059 172.938 10.0001C177.459 4.15359 161.243 1.72902 159.625 1.62506C140.103 0.370637 139.603 31.2033 137.625 43.6251C135.379 57.7317 130.31 77.0193 132.375 91.6251C132.582 93.091 136.662 94.9343 135.188 95.0626C129.978 95.5156 124.728 95.0705 119.5 94.9376C107.821 94.6406 95.6309 94.3216 84 93.1251C79.5125 92.6634 67.4077 90.3975 71.375 88.2501C83.8479 81.4987 98.727 80.7334 112.375 76.8751C136.305 70.11 150.623 65.8048 173 55.4376C185.339 49.7211 201.627 41.4445 211.375 31.0001C215.273 26.8233 208.816 24.8028 205.5 29.7501C199.511 38.685 197.158 50.1084 194.75 60.3751C194.47 61.5702 187.393 82.2605 194.312 74.6251C199.294 69.1282 203.954 63.0639 209.875 58.5001C216.234 53.5982 221.134 57.9603 226.75 62.0001C233.492 66.8501 243.875 73.3655 243.875 82.7501" stroke="black" stroke-width="3" stroke-linecap="round"/>
</svg>
