<svg width="1026" height="251" viewBox="0 0 1026 251" fill="none" xmlns="http://www.w3.org/2000/svg">
<path d="M2.25 144.375C26.6503 139.283 62.6001 132.22 86 125.375C99.557 121.409 144.526 108.285 156.625 93.375C168.462 78.7877 143.878 66.0292 137.25 63.25C115.486 54.1243 90.1447 57.1655 89.4375 85.6875C88.9306 106.133 97.5452 120.657 112.938 133.687C120.955 140.475 130.825 144.741 140.125 149.625C150.923 155.296 176.834 160.648 170 170.75C163.374 180.545 116.157 191.166 113 191.875C88.9954 197.268 63.6243 200.798 38.9375 201C30.6979 201.068 39.0013 200.216 40.4375 199.875C87.1539 188.774 134.46 182.392 182 175.875C230.633 169.208 279.036 161.33 327.5 153.562C364.991 147.553 395.96 130.359 430.375 115C470.585 97.0543 513.312 81.1891 558.25 84.125C569.281 84.8457 594.106 88.593 602.375 100C615.468 118.061 589.509 141.453 578.375 150.437C566.611 159.929 555.523 166.176 541.25 170.75C536.597 172.241 531.76 173.493 526.875 173.625C520.244 173.804 517.698 170.447 523 165.5C544.225 145.696 577.713 146.56 599.125 127.812C627.205 103.227 619.7 59.4677 600.438 31.8125C588.903 15.2522 574.839 2.74837 553.625 1.81247C523.042 0.463209 502.735 28.5965 490.75 52.625C483.839 66.481 477.942 88.763 474.75 104C470.612 123.75 466.253 146.108 467.688 166.437C469.221 188.181 495.268 214.409 473.25 234.75C461.838 245.293 445.687 243.912 434.875 232.75C422.143 219.605 415.068 192.332 420 174.75C426.236 152.518 445.624 143.776 466 139.5C479.494 136.668 493.47 136.888 507.25 136.437C540.305 135.356 567.836 137.473 600.875 138.125C635.645 138.812 648.12 139.136 682.438 135.187C740.478 128.51 797.408 117.273 856 115C889.274 113.709 909.132 114.904 940.25 119.25C955.495 121.379 968.859 124 984.312 124C985.995 124 1001.95 125.483 1004.81 120.812C1008.65 114.544 997.788 99.1403 996.625 97.375C990.008 87.3296 981.032 73.0912 966.562 72.5625C936.883 71.4779 919.143 113.967 918.75 137.375C918.408 157.741 928.747 178.871 951 183C988.192 189.901 1019.19 154.917 1023.62 121.625C1027.13 95.3654 1017.91 77.4903 1005.56 55.75C998.033 42.4944 983.362 18.9518 966.625 14C945.331 7.69977 914.69 22.1778 915 47.125C915.156 59.6794 923.774 65.0958 932.5 71.625C949.237 84.1483 963.522 92.0093 959.75 116.562C957.059 134.08 948.629 145.041 936.062 156.687C924.887 167.045 907.17 171.592 901 187C896.599 197.99 896.077 213.305 903.75 223.375C918.144 242.265 954.732 253.424 977.25 246.375C995.576 240.638 999.861 226.674 998.812 208.937C997.479 186.378 989.097 174.992 969.5 163.875C965.609 161.668 898.931 138.173 897.438 137.437C886.703 132.149 875.152 126.825 867.5 117.625C852.404 99.4744 861.301 80.6463 875.125 66C888.438 51.8956 920.368 34.5182 938.875 28.5C946.476 26.028 954.673 24.3755 962.625 25.1875C980.181 26.9801 975.425 40.5148 969.938 52C958.124 76.7223 934.49 101.898 916.625 121C891.137 148.252 863.385 171.271 835.875 196.125" stroke="black" stroke-width="3" stroke-linecap="round"/>
</svg>
