<svg viewBox="0 0 216 67" width="216" height="67">
	<path id="Layer" fill-rule="evenodd" class="s0" d="m107.6-46.8q0 1-1.9 2.7-0.5 0.5-1.1 1-0.5 0.4-1.1 0.9-0.6 0.4-1.2 0.8-0.6 0.4-1.2 0.7c-0.2 0.8-0.6 2.1-1 4q-0.2 0.9-0.4 1.7-0.2 0.8-0.4 1.6-0.3 0.8-0.6 1.6-0.3 0.9-0.6 1.6-0.3 0.6-0.6 1.1-0.3 0.5-0.7 1-0.4 0.5-0.8 1-0.4 0.4-0.9 0.9-1.3 1.3-2.9 2.4-1.6 1.1-3.4 1.8-1.7 0.8-3.6 1.2-1.9 0.3-3.8 0.4-0.5 0-1-0.1-0.5 0-1-0.1-0.4-0.1-0.9-0.2-0.5-0.2-0.9-0.4-0.2 0.4-0.4 0.8-0.2 0.4-0.3 0.8-0.1 0.4-0.2 0.8 0 0.4 0 0.8 0 0.4 0 0.8 0.1 0.4 0.2 0.8 0.2 0.4 0.4 0.8 0.2 0.4 0.5 0.7 0 0 0 0 0 0.1 0.1 0.1 0 0 0 0.1 0 0 0 0.1 0 0.1-0.2 0.1-0.5 0-1-1.2-0.1-0.3-0.2-0.5-0.1-0.3-0.2-0.6 0-0.3-0.1-0.6 0-0.3 0-0.6 0-0.4 0.1-0.9 0.1-0.4 0.2-0.8 0.1-0.5 0.3-0.9 0.2-0.4 0.4-0.8-4.1-2.1-4.1-7.2 0-0.9 0.2-1.7 0.1-0.9 0.3-1.7 0.3-0.9 0.6-1.7 0.4-0.7 0.9-1.5 0.5-0.8 1.1-1.6 0.6-0.8 1.3-1.6 0.7-0.7 1.5-1.4 0.7-0.6 1.6-1.2 0.9-0.8 2-1.4 1-0.6 2.1-1 1.2-0.4 2.4-0.6 1.2-0.3 2.4-0.3 0.5-0.1 1 0 0.5 0.1 1 0.3 0.5 0.1 1 0.4 0.4 0.3 0.8 0.6 0.4 0.4 0.6 0.8 0.3 0.4 0.5 0.9 0.2 0.5 0.3 1 0 0.5 0 1 0 0.3 0 0.6 0 0.3-0.1 0.6 0 0.4-0.1 0.7 0 0.3-0.1 0.6 2.8-1.9 5-3.2 0.4-0.8 0.8-1.5 0.3-0.7 0.8-1.3 0.4-0.7 0.9-1.3 0.5-0.6 1.1-1.2 2.1-2.2 3.7-2.2 0.9 0 0.9 0.7zm-13.2 7.4q0-0.5-0.1-0.9-0.1-0.5-0.2-0.9-0.2-0.5-0.5-0.8-0.2-0.4-0.5-0.7-0.4-0.4-0.8-0.6-0.4-0.3-0.8-0.4-0.5-0.2-0.9-0.2-0.5-0.1-1-0.1-5.2 0-10.1 5.5-5 5.4-4.9 11.3 0 3.9 2.8 5.5 0.4-0.7 0.8-1.3 0.5-0.6 1-1.2 0.4-0.6 1-1.2 0.5-0.6 1-1.1-0.3-0.2-0.5-0.5-0.3-0.3-0.4-0.7-0.2-0.3-0.3-0.7-0.1-0.4-0.1-0.8 0-0.2 0-0.5 0.1-0.3 0.2-0.5 0.1-0.3 0.2-0.5 0.2-0.3 0.4-0.5 0.1-0.2 0.3-0.3 0.2-0.2 0.5-0.3 0.2-0.1 0.4-0.1 0.3-0.1 0.5-0.1 1.4 0 1.4 1.2 0 0.2-0.1 0.3 0 0.2-0.1 0.3 0 0.1-0.1 0.3-0.1 0.1-0.2 0.2-0.1 0.1-0.3 0.2-0.1 0.1-0.3 0.1-0.1 0.1-0.3 0.1-0.1 0.1-0.3 0c-0.6 0-1-0.3-1-0.9q0-0.1 0-0.1 0.1-0.1 0.1-0.2 0-0.1 0-0.1 0.1-0.1 0.1-0.2c0-0.2 0.1-0.3 0.1-0.3q0 0 0 0 0-0.1 0-0.1 0 0-0.1 0 0 0 0 0-0.4 0-0.7 0.7-0.1 0.2-0.2 0.3 0 0.2-0.1 0.4 0 0.2 0 0.3-0.1 0.2-0.1 0.4 0.1 0.3 0.1 0.7 0.1 0.3 0.3 0.6 0.1 0.3 0.3 0.5 0.3 0.3 0.5 0.5 1.4-1.4 2.9-2.7 1.5-1.3 3.1-2.5 1.5-1.2 3.1-2.3 1.7-1.1 3.3-2.2 0.2-0.3 0.2-0.7 0.1-0.4 0.2-0.7 0.1-0.4 0.1-0.8 0.1-0.4 0.1-0.7zm4.8-0.1c-1.5 1-3.2 2-5 3.3q-0.3 1-0.8 2-0.4 1-1 1.9-0.6 0.9-1.2 1.7-0.7 0.9-1.5 1.6-3.2 3.1-6.2 3.1-0.3 0-0.5 0-0.3-0.1-0.5-0.1-0.3-0.1-0.5-0.2-0.3 0-0.5-0.1-0.5 0.5-1 1.1-0.5 0.6-1 1.2-0.5 0.6-0.9 1.2-0.5 0.6-0.9 1.3 0.5 0.1 0.9 0.3 0.5 0.1 0.9 0.2 0.5 0.1 0.9 0.1 0.5 0.1 1 0.1 0.9 0 1.8-0.2 1-0.1 1.9-0.4 0.9-0.2 1.7-0.6 0.9-0.4 1.7-0.9 0.9-0.5 1.7-1.2 0.8-0.6 1.6-1.4 0.7-0.7 1.4-1.5 0.6-0.8 1.2-1.7 0.2-0.3 0.5-0.7 0.2-0.4 0.5-0.8 0.2-0.4 0.4-0.8 0.2-0.5 0.4-0.9 0.7-1.4 2.1-5.5 0.4-1 0.9-2.1zm-5.5 3.6l-1.3 0.9q-1.4 0.9-2.8 1.9-1.4 1-2.7 2.1-1.3 1-2.6 2.2-1.3 1.1-2.5 2.3 0.2 0.1 0.4 0.1 0.2 0.1 0.4 0.2 0.2 0 0.5 0.1 0.2 0 0.4 0 2.8 0 5.8-2.9 0.7-0.7 1.4-1.5 0.6-0.8 1.2-1.7 0.5-0.9 1-1.8 0.4-0.9 0.8-1.9zm13.5-10.8q0-0.5-0.5-0.5-1.3 0-2.9 1.8-0.4 0.5-0.8 1-0.4 0.5-0.7 1-0.3 0.5-0.6 1.1-0.2 0.6-0.4 1.1 0.6-0.3 1.1-0.7 0.6-0.3 1.1-0.7 0.5-0.4 1-0.9 0.6-0.4 1.1-0.8 1.6-1.6 1.6-2.4z"/>
	<path id="Layer" fill-rule="evenodd" class="s0" d="m113.5-27.4c0 0.3-1 1.6-2.9 3.8q-2.3 2.8-3.6 2.8-0.2 0-0.4 0-0.2-0.1-0.4-0.2-0.2 0-0.4-0.2-0.1-0.1-0.3-0.3-0.1-0.1-0.2-0.3-0.1-0.2-0.2-0.5-0.1-0.2-0.1-0.4 0-0.2 0-0.4 0-0.3 0-0.6 0.1-0.3 0.1-0.6 0.1-0.3 0.2-0.6 0.2-0.3 0.3-0.5-0.3 0.5-0.7 0.9-0.3 0.5-0.7 1-0.4 0.4-0.8 0.9-0.4 0.4-0.8 0.8-0.2 0.3-0.4 0.4-0.2 0.2-0.5 0.3-0.3 0.2-0.5 0.2-0.3 0.1-0.6 0.1-0.3 0-0.5 0-0.3-0.1-0.5-0.2-0.2-0.1-0.4-0.3-0.2-0.1-0.3-0.3-0.2-0.3-0.4-0.5-0.1-0.3-0.2-0.6-0.1-0.3-0.1-0.6-0.1-0.3 0-0.6 0-3.7 5.3-6.6 0.4-0.3 0.8-0.5 0.5-0.2 0.9-0.4 0.5-0.2 1-0.3 0.5-0.1 1-0.1 0.2 0 0.5 0 0.2 0.1 0.4 0.3 0.2 0.2 0.3 0.4 0 0.2 0 0.5 0 0.1 0 0.2 0 0.1 0 0.2-0.1 0.1-0.1 0.2 0 0.1 0 0.2l1-1.9q0.1 0.1 0.2 0.1 0.1 0 0.2 0 0.2 0.1 0.3 0.1 0.1 0 0.3 0 0.1 0 0.3 0 0.2 0 0.3-0.1 0.2 0 0.4 0 0.2 0 0.3-0.1l-3.4 5.7q-1.8 3-1.8 4c0 0.7 0.2 0.9 0.8 0.9q0.7 0 2.5-1.8 0.4-0.5 0.9-1 0.5-0.6 0.9-1.1 0.4-0.6 0.9-1.1 0.4-0.6 0.8-1.2 0.1-0.2 0.2-0.2 0 0 0 0 0.1 0 0.1 0.1 0 0 0 0 0 0 0 0zm-5.4-3.2c0-0.6-0.3-1-0.9-1q-1.8 0-4.7 3.5c-2 2.4-2.9 4.3-2.9 5.7q0 1.3 1.1 1.3c0.8 0 2.5-1.5 4.7-4.5q2.7-3.6 2.7-5z"/>
	<path id="Layer" fill-rule="evenodd" class="s0" d="m127.3-27.4c0 0.3-1 1.6-2.9 3.8q-2.3 2.8-3.6 2.8-0.2 0-0.4 0-0.2-0.1-0.4-0.2-0.2 0-0.4-0.2-0.2-0.1-0.3-0.3-0.1-0.1-0.2-0.3-0.2-0.2-0.2-0.5-0.1-0.2-0.1-0.4-0.1-0.2-0.1-0.4 0-0.3 0.1-0.6 0-0.3 0.1-0.6 0.1-0.3 0.2-0.6 0.1-0.3 0.3-0.5-0.4 0.5-0.7 0.9-0.4 0.5-0.8 1-0.3 0.4-0.7 0.9-0.4 0.4-0.8 0.8-0.2 0.3-0.4 0.4-0.3 0.2-0.5 0.3-0.3 0.2-0.6 0.2-0.2 0.1-0.5 0.1-0.3 0.1-0.5 0-0.3-0.1-0.5-0.2-0.2-0.1-0.4-0.3-0.2-0.1-0.4-0.3-0.2-0.3-0.3-0.5-0.1-0.3-0.2-0.6-0.1-0.3-0.2-0.6 0-0.3 0-0.6 0-3.7 5.3-6.6 0.4-0.3 0.9-0.5 0.5-0.2 0.9-0.4 0.5-0.2 1-0.3 0.5-0.1 1-0.2 0.2 0 0.5 0.1 0.2 0.1 0.4 0.2 0.2 0.2 0.3 0.4 0 0.3 0 0.5 0 0.1 0 0.3 0 0.1 0 0.2-0.1 0.1-0.1 0.2 0 0.1 0 0.2l1-1.9q0.1 0 0.2 0.1 0.1 0 0.2 0 0.2 0 0.3 0 0.1 0 0.3 0.1 0.1-0.1 0.3-0.1 0.2 0 0.3 0 0.2 0 0.4 0 0.2-0.1 0.3-0.1l-3.4 5.7q-1.8 3-1.8 4c0 0.7 0.3 0.9 0.8 0.9q0.7 0 2.5-1.8 0.5-0.5 0.9-1 0.5-0.6 0.9-1.1 0.5-0.6 0.9-1.1 0.4-0.6 0.8-1.2 0.1-0.2 0.2-0.2 0 0 0 0 0 0 0.1 0.1 0 0 0 0 0 0 0 0zm-5.4-3.2c0-0.6-0.3-1-0.9-1q-1.8 0-4.7 3.5c-2 2.4-2.9 4.3-2.9 5.7q0 1.3 1.1 1.3 1.3 0 4.7-4.5 2.7-3.6 2.7-5z"/>
	<path id="Layer" fill-rule="evenodd" class="s0" d="m145-41q-7.3 11.7-9.2 14.9-2 3.3-2 4.1 0 0.9 0.8 0.9 1.8 0 6-6.2 0.1-0.2 0.2-0.2 0.1 0 0.1 0 0 0 0 0.1 0.1 0 0.1 0 0 0 0 0-0.1 0.1-0.1 0.1 0 0.1 0 0.1-0.1 0-0.1 0.1 0 0 0 0.1l-0.8 1.1q-3.7 5.1-5.5 5.1-0.2 0-0.4 0-0.2-0.1-0.4-0.2-0.2 0-0.3-0.2-0.2-0.1-0.3-0.3-0.2-0.1-0.3-0.3-0.1-0.3-0.2-0.5 0-0.2-0.1-0.4 0-0.3 0-0.5 0-0.3 0.1-0.6 0-0.3 0.1-0.7 0.1-0.3 0.2-0.6 0.2-0.3 0.3-0.5-3.4 4.8-5.1 4.8-0.2 0-0.5-0.1-0.2 0-0.4-0.1-0.3-0.1-0.5-0.3-0.2-0.2-0.3-0.4-0.2-0.2-0.3-0.5-0.2-0.3-0.2-0.5-0.1-0.3-0.2-0.6 0-0.3 0-0.6 0-3.2 4-5.9 3.2-2 5-2.1 0.2 0 0.5 0.1 0.2 0.1 0.4 0.2 0.2 0.2 0.2 0.4 0.1 0.3 0.1 0.5 0 0.2 0 0.3-0.1 0.2-0.1 0.4 0 0.1-0.1 0.3-0.1 0.1-0.1 0.3l7-11.7q0.1 0 0.3 0.1 0.1 0 0.3 0 0.2 0 0.3 0.1 0.2 0 0.3 0c0.1 0 0.5-0.1 1.2-0.1zm-9.4 10.5c0-0.7-0.3-1-1-1q-1.8 0-4.6 3.5-2.9 3.5-2.9 5.6 0 1.4 1 1.4 1.6 0 5.4-5.5c1.4-2 2.1-3.3 2.1-4z"/>
	<path id="Layer" fill-rule="evenodd" class="s0" d="m91.5 17.3q0 0.9-1.9 2.7-0.5 0.4-1.1 0.9-0.5 0.5-1.1 0.9-0.6 0.4-1.2 0.8-0.6 0.4-1.2 0.7-0.4 1.2-1 4.1-0.2 0.8-0.4 1.7-0.2 0.8-0.5 1.6-0.2 0.8-0.5 1.6-0.3 0.8-0.6 1.6-0.3 0.6-0.6 1.1-0.4 0.5-0.7 1-0.4 0.5-0.8 1-0.5 0.4-0.9 0.8-1.4 1.4-2.9 2.5-1.6 1-3.4 1.8-1.7 0.7-3.6 1.1-1.9 0.4-3.8 0.4-0.5 0-0.9 0-0.5-0.1-1-0.2-0.5-0.1-1-0.2-0.4-0.1-0.9-0.3-0.2 0.3-0.4 0.7-0.1 0.4-0.2 0.8-0.2 0.4-0.2 0.8-0.1 0.4-0.1 0.8 0 0.4 0.1 0.8 0 0.4 0.2 0.8 0.1 0.4 0.3 0.8 0.2 0.4 0.5 0.7 0 0 0.1 0 0 0.1 0 0.1 0 0 0 0.1 0 0 0 0.1 0 0.1-0.2 0.1-0.4 0-1-1.2-0.1-0.3-0.2-0.5-0.1-0.3-0.1-0.6-0.1-0.3-0.1-0.6-0.1-0.3-0.1-0.6 0-0.4 0.1-0.8 0.1-0.5 0.2-0.9 0.1-0.4 0.3-0.8 0.2-0.4 0.4-0.8-4.1-2.1-4.1-7.3 0-0.8 0.2-1.7 0.1-0.9 0.4-1.7 0.2-0.8 0.6-1.6 0.4-0.8 0.8-1.5 0.6-0.9 1.2-1.7 0.6-0.8 1.2-1.5 0.7-0.8 1.5-1.4 0.7-0.7 1.5-1.3 1-0.8 2-1.4 1.1-0.6 2.2-1 1.2-0.4 2.3-0.6 1.2-0.3 2.4-0.3 0.6 0 1.1 0 0.5 0.1 1 0.3 0.5 0.1 0.9 0.4 0.5 0.3 0.9 0.6 0.3 0.4 0.6 0.8 0.3 0.4 0.5 0.9 0.1 0.4 0.2 0.9 0.1 0.5 0.1 1.1 0 0.3 0 0.6-0.1 0.3-0.1 0.6-0.1 0.4-0.1 0.7-0.1 0.3-0.2 0.6 2.9-1.9 5.1-3.2 0.3-0.8 0.7-1.5 0.4-0.7 0.9-1.3 0.4-0.7 0.9-1.3 0.5-0.6 1.1-1.2 2.1-2.2 3.7-2.2 0.9 0 0.9 0.8zm-13.3 7.3q0-0.5 0-0.9-0.1-0.5-0.3-0.9-0.1-0.4-0.4-0.8-0.2-0.4-0.6-0.7-0.3-0.3-0.7-0.6-0.4-0.2-0.9-0.4-0.4-0.2-0.9-0.2-0.4-0.1-0.9-0.1-5.3 0-10.2 5.5-4.9 5.4-4.9 11.3 0 3.8 2.9 5.5 0.4-0.7 0.8-1.3 0.5-0.6 0.9-1.2 0.5-0.6 1-1.2 0.5-0.6 1.1-1.1-0.3-0.3-0.6-0.6-0.2-0.3-0.4-0.6-0.1-0.3-0.2-0.7-0.1-0.4-0.1-0.8 0-0.2 0-0.5 0.1-0.3 0.2-0.5 0.1-0.3 0.2-0.5 0.1-0.3 0.3-0.5 0.2-0.2 0.4-0.3 0.2-0.2 0.4-0.3 0.3-0.1 0.5-0.1 0.3-0.1 0.5-0.1 1.3 0 1.3 1.2 0 0.2 0 0.3 0 0.2-0.1 0.3-0.1 0.1-0.2 0.3 0 0.1-0.2 0.2-0.1 0.1-0.2 0.2-0.1 0.1-0.3 0.1-0.1 0.1-0.3 0.1-0.2 0.1-0.3 0.1c-0.6 0-1-0.4-1-1q0-0.1 0-0.1 0-0.1 0-0.2 0.1-0.1 0.1-0.1 0-0.1 0.1-0.2 0 0 0-0.1 0 0 0 0 0-0.1 0-0.1 0.1-0.1 0.1-0.1 0 0 0 0-0.1-0.1-0.1-0.1 0 0 0 0 0 0 0 0-0.4 0-0.7 0.7-0.1 0.2-0.2 0.3-0.1 0.2-0.1 0.4 0 0.2-0.1 0.3 0 0.2 0 0.4 0 0.3 0.1 0.7 0.1 0.3 0.2 0.6 0.2 0.3 0.4 0.5 0.2 0.3 0.5 0.5 1.4-1.4 2.9-2.7 1.5-1.3 3-2.5 1.6-1.2 3.2-2.3 1.6-1.1 3.3-2.2 0.1-0.3 0.2-0.7 0.1-0.4 0.2-0.7 0-0.4 0.1-0.8 0-0.3 0-0.7zm4.9-0.1c-1.6 1-3.2 2.1-5 3.3q-0.3 1-0.8 2-0.4 1-1 1.9-0.6 0.9-1.3 1.8-0.7 0.8-1.4 1.6-3.3 3.1-6.2 3.1-0.3 0-0.6-0.1-0.2 0-0.5-0.1-0.2 0-0.5-0.1-0.2-0.1-0.4-0.2-0.6 0.6-1.1 1.1-0.5 0.6-1 1.2-0.4 0.6-0.9 1.2-0.4 0.7-0.8 1.3 0.4 0.2 0.9 0.3 0.4 0.2 0.9 0.3 0.4 0.1 0.9 0.1 0.5 0 0.9 0 1 0 1.9-0.1 0.9-0.1 1.8-0.4 0.9-0.3 1.8-0.7 0.8-0.3 1.6-0.8 0.9-0.6 1.7-1.2 0.9-0.7 1.6-1.4 0.8-0.7 1.4-1.5 0.7-0.8 1.2-1.7 0.3-0.4 0.5-0.8 0.3-0.4 0.5-0.8 0.2-0.4 0.5-0.8 0.2-0.4 0.4-0.8 0.6-1.5 2.1-5.6c0.3-0.6 0.5-1.4 0.9-2.1zm-5.6 3.6l-1.2 0.9q-1.5 0.9-2.8 1.9-1.4 1-2.7 2.1-1.4 1-2.7 2.1-1.2 1.2-2.5 2.3 0.2 0.1 0.5 0.2 0.2 0.1 0.4 0.2 0.2 0 0.4 0 0.3 0.1 0.5 0.1c1.8 0 3.7-1 5.7-2.9q0.8-0.7 1.4-1.5 0.7-0.8 1.2-1.7 0.6-0.9 1.1-1.8 0.4-0.9 0.7-1.9zm13.6-10.8q0-0.5-0.5-0.5-1.4 0-3 1.8-0.4 0.5-0.7 1-0.4 0.5-0.7 1-0.3 0.6-0.6 1.1-0.2 0.6-0.5 1.2 0.6-0.4 1.2-0.7 0.5-0.4 1.1-0.8 0.5-0.4 1-0.8 0.5-0.5 1-0.9 1.7-1.6 1.7-2.4z"/>
	<path id="Layer" class="s0" d="m96.1 36.6q0 0.1 0 0.1 0 0.1 0 0.1-0.1 0.1-0.1 0.1 0 0-0.1 0.1l-0.8 1.1q-3.7 5.1-5.5 5.1-0.2 0-0.4 0-0.2 0-0.4-0.1-0.2-0.1-0.4-0.2-0.2-0.2-0.3-0.3-0.2-0.2-0.3-0.4-0.1-0.2-0.2-0.4-0.1-0.2-0.1-0.5 0-0.2 0-0.4 0-0.5 0.2-1 0.1-0.5 0.3-0.9 0.2-0.5 0.4-0.9 0.3-0.4 0.6-0.8 2.3-3.4 2.3-4.1 0-0.1 0-0.3-0.1-0.1-0.2-0.2-0.1-0.2-0.3-0.2-0.1-0.1-0.3 0-1.2 0-3.2 2.3-0.8 1-1.5 2-0.7 1-1.4 2-0.6 1.1-1.3 2.2-0.6 1-1.2 2.1-0.1 0-0.2 0-0.1 0-0.3 0-0.1-0.1-0.2-0.1-0.1 0-0.3 0-0.1 0-0.2 0-0.2 0-0.3 0.1-0.2 0-0.3 0-0.2 0-0.3 0l2.9-5.2q0.6-1.1 1.8-3.2 0.6-1.1 4-6.8l3-5q0.1 0.1 0.2 0.1 0.1 0 0.2 0 0.2 0 0.3 0 0.1 0.1 0.3 0.1 0.1 0 0.3 0 0.2-0.1 0.4-0.1 0.2 0 0.4 0 0.2-0.1 0.3-0.1-2 3.2-6 9.7-0.1 0.2-3 5 3.6-5.4 5.8-5.4 0.2 0 0.4 0 0.2 0.1 0.4 0.2 0.2 0.1 0.3 0.2 0.2 0.1 0.3 0.3 0.2 0.2 0.3 0.4 0.1 0.2 0.2 0.4 0 0.3 0.1 0.5 0 0.2 0 0.5-0.1 0.5-0.2 1-0.2 0.5-0.4 1-0.2 0.5-0.5 1-0.3 0.4-0.6 0.8-1.9 2.9-1.9 3.6 0 0.2 0 0.3 0.1 0.2 0.2 0.3 0.1 0.2 0.3 0.2 0.1 0.1 0.3 0c1 0 2.7-1.6 5-4.9l0.6-0.8 0.4-0.5q0.1-0.2 0.2-0.2c0.1 0 0 0.1 0 0.1z"/>
	<path id="Layer" fill-rule="evenodd" class="s0" d="m106 36.7q0 0-0.1 0.1 0 0.1-0.1 0.1 0 0.1-0.1 0.2 0 0-0.1 0.1l-0.8 1q-4 5-6.9 5-0.4 0-0.7 0-0.3-0.1-0.6-0.2-0.3-0.1-0.6-0.3-0.2-0.2-0.4-0.5-0.3-0.2-0.4-0.5-0.2-0.3-0.3-0.6-0.2-0.3-0.2-0.7-0.1-0.3-0.1-0.6 0-3.5 4.9-6.2 0.5-0.3 1-0.6 0.5-0.2 1.1-0.4 0.5-0.2 1-0.3 0.6-0.1 1.1-0.1 0.2 0 0.4 0 0.1 0 0.3 0.1 0.1 0 0.3 0.1 0.1 0.1 0.2 0.2 0.2 0.1 0.2 0.2 0.1 0.1 0.2 0.2 0.1 0.2 0.1 0.3 0 0.1 0 0.3 0 1.4-1.8 2.4-0.7 0.3-1.5 0.6-0.7 0.3-1.5 0.5-0.8 0.2-1.6 0.4-0.7 0.2-1.5 0.3-0.3 0.4-0.5 0.8-0.3 0.4-0.4 0.8-0.2 0.4-0.3 0.9-0.1 0.4-0.2 0.9 0 1.7 1.9 1.7 3.1 0 7.5-6 0.3-0.4 0.4-0.3 0 0 0.1 0 0 0 0 0 0 0 0 0 0 0.1 0 0.1zm-1.7-3.6q0-0.7-0.6-0.7-0.4 0.1-0.8 0.2-0.4 0.1-0.7 0.3-0.4 0.2-0.7 0.4-0.3 0.3-0.6 0.6-0.4 0.4-0.9 0.8-0.4 0.5-0.8 0.9-0.4 0.5-0.8 1-0.4 0.5-0.8 1 0.7-0.2 1.3-0.4 0.6-0.2 1.2-0.4 0.6-0.3 1.2-0.6 0.5-0.3 1.1-0.6 1.9-1.4 1.9-2.5z"/>
	<path id="Layer" class="s0" d="m118.5 36.6q0 0.1 0 0.1-0.1 0.1-0.1 0.1 0 0.1 0 0.1-0.1 0-0.1 0.1l-0.9 1.1q-3.6 5.1-5.4 5.1-0.2 0-0.5 0-0.2 0-0.4-0.1-0.2-0.1-0.4-0.2-0.1-0.2-0.3-0.3-0.1-0.2-0.2-0.4-0.2-0.2-0.2-0.4-0.1-0.2-0.1-0.5-0.1-0.2-0.1-0.4 0.1-0.5 0.2-1 0.1-0.5 0.3-0.9 0.2-0.5 0.5-0.9 0.2-0.4 0.5-0.8 2.3-3.4 2.3-4.1 0-0.7-0.8-0.7-1.1 0-3.2 2.3-0.7 1-1.4 2-0.8 1-1.4 2-0.7 1.1-1.3 2.2-0.7 1-1.2 2.1-0.2 0-0.3 0-0.1 0-0.2 0-0.2-0.1-0.3-0.1-0.1 0-0.2 0-0.2 0-0.3 0-0.2 0-0.3 0.1-0.2 0-0.3 0-0.1 0-0.3 0l2.9-5.2q0.6-1.1 1.8-3.2 0.6-1 4-6.8l3-5q0.1 0.1 0.2 0.1 0.2 0 0.3 0 0.1 0 0.2 0 0.2 0.1 0.3 0.1 0.2 0 0.4 0 0.2-0.1 0.3-0.1 0.2 0 0.4 0 0.2-0.1 0.4-0.1l-6 9.7-3 5q3.6-5.4 5.8-5.4 0.2 0 0.4 0 0.2 0.1 0.4 0.2 0.2 0.1 0.3 0.2 0.2 0.1 0.3 0.3 0.2 0.2 0.3 0.4 0.1 0.2 0.2 0.4 0 0.3 0.1 0.5 0 0.2 0 0.5-0.1 0.5-0.2 1-0.2 0.5-0.4 1-0.2 0.5-0.5 1-0.3 0.4-0.6 0.9-1.9 2.8-1.9 3.5-0.1 0.2 0 0.3 0.1 0.2 0.2 0.3 0.1 0.2 0.3 0.2 0.1 0.1 0.3 0 1.5 0 5-4.9l0.6-0.8 0.4-0.5q0.1-0.2 0.2-0.1c0.1 0 0 0 0 0z"/>
	<path id="Layer" fill-rule="evenodd" class="s0" d="m130.2 32.4c0 0.4-0.6 1-1.8 1.7q-2 1.7-6.7 5.2c-0.4 0.4-1 0.8-1.7 1.3h0.6q0.2 0 0.5 0 0.2 0 0.4 0.1 0.2 0.1 0.4 0.2 0.2 0.2 0.4 0.3 0.1 0.2 0.3 0.4 0.1 0.2 0.3 0.5 0.1 0.2 0.2 0.4 0 0.3 0.1 0.5 0.4-0.3 0.8-0.6 0.4-0.3 0.8-0.6 0.4-0.3 0.8-0.7 0.3-0.3 0.7-0.7 0.4-0.4 0.8-0.8 0.4-0.4 0.8-0.8 0.3-0.5 0.7-0.9 0.3-0.5 0.7-0.9 0.2-0.4 0.3-0.4 0.1 0 0.1 0 0 0 0 0 0 0 0 0.1 0 0 0 0 0 0.4-2.1 2.7-0.5 0.6-1 1.1-0.5 0.5-1 1-0.6 0.5-1.2 1-0.5 0.4-1.1 0.8v0.6q0 0.6-0.2 1.2-0.1 0.6-0.3 1.2-0.2 0.6-0.4 1.1-0.3 0.6-0.7 1.1-0.3 0.6-0.7 1.1-0.5 0.6-1 1.1-0.4 0.5-1 1-0.5 0.4-1.1 0.8c-3.3 2.2-6 3.3-7.9 3.3q-2.3 0-2.3-1.9c0-1.4 1-2.9 3.1-4.5q1-0.6 2.1-1.2 1-0.5 2-1.1 1.1-0.5 2.2-1 1-0.5 2.1-0.9 0.4-0.1 0.7-0.3 0.3-0.1 0.6-0.3 0.3-0.1 0.6-0.3 0.3-0.2 0.6-0.3 0.1-0.2 0.2-0.4 0-0.2 0.1-0.4 0-0.3 0-0.5 0-0.2 0.1-0.4 0-1.5-1.6-1.5-0.1 0-0.2 0-0.1 0-0.1 0-0.1 0-0.2 0-0.1 0-0.2 0l-0.3 0.3-0.7 0.7q-1.8 1.7-2.3 1.7-0.6 0-0.5-0.5 0-1.2 3.6-2.3 5.4-4.1 8.3-6.5l-0.4 0.3q-0.2 0.2-0.5 0.3-0.2 0.2-0.5 0.3-0.2 0.1-0.5 0.1-0.2 0.1-0.5 0.1-0.3 0-0.5-0.1-0.2-0.1-0.4-0.2-0.2-0.1-0.4-0.2-0.2-0.2-0.4-0.4-0.1-0.1-0.3-0.2-0.2-0.2-0.4-0.3-0.2-0.1-0.4-0.1-0.2-0.1-0.4-0.1c-0.8 0-2 1-3.6 3q-0.3 0.2-0.4 0.2 0 0 0 0 0 0 0 0 0 0 0 0 0 0 0-0.1 0.1-0.3 0.3-0.6 0.2-0.3 0.5-0.6 0.2-0.2 0.4-0.5 0.3-0.3 0.6-0.5 2.2-2.3 3.7-2.3 0.3 0.1 0.7 0.2 0.3 0.1 0.6 0.3 0.4 0.1 0.7 0.3 0.3 0.2 0.6 0.4 0.1 0.1 0.2 0.2 0.2 0.1 0.3 0.2 0.2 0 0.4 0 0.1 0.1 0.3 0.1 0.1 0 0.1 0 0.1 0 0.2-0.1 0.1 0 0.1 0 0.1 0 0.2-0.1l0.2-0.3 0.7-0.8q0-0.1 0.1-0.2 0.1-0.1 0.2-0.2 0.2 0 0.3-0.1 0.1 0 0.3-0.1 0.2 0 0.2 0.3zm-8.6 11.8q-0.5 0.3-5.6 2.7-0.8 0.3-1.6 0.7-0.8 0.4-1.5 0.9-0.7 0.4-1.4 0.9-0.8 0.5-1.4 1.1-2.2 1.9-2.2 3.4c0 1.1 0.7 1.6 2 1.6q2.8 0 6.5-3.5 0.8-0.8 1.6-1.7 0.7-0.9 1.4-1.9 0.7-1 1.2-2 0.5-1.1 1-2.2z"/>
	<path id="Layer" fill-rule="evenodd" class="s0" d="m143.4 36.7c0 0.2-1 1.5-2.9 3.8q-2.3 2.7-3.6 2.7-0.2 0-0.4 0-0.2 0-0.4-0.1-0.2-0.1-0.4-0.2-0.1-0.2-0.3-0.3-0.1-0.2-0.2-0.4-0.1-0.2-0.2-0.4-0.1-0.2-0.1-0.5 0-0.2 0-0.4 0-0.3 0-0.6 0.1-0.3 0.1-0.6 0.1-0.3 0.2-0.6 0.2-0.2 0.3-0.5-0.3 0.5-0.7 1-0.3 0.4-0.7 0.9-0.4 0.5-0.8 0.9-0.4 0.5-0.8 0.9-0.2 0.2-0.4 0.4-0.2 0.1-0.5 0.3-0.3 0.1-0.5 0.2-0.3 0.1-0.6 0.1-0.3 0-0.5-0.1-0.3 0-0.5-0.2-0.2-0.1-0.4-0.2-0.2-0.2-0.3-0.4-0.2-0.2-0.4-0.5-0.1-0.3-0.2-0.6-0.1-0.3-0.1-0.6-0.1-0.3 0-0.5 0-3.8 5.2-6.7 0.5-0.3 0.9-0.5 0.5-0.2 0.9-0.4 0.5-0.1 1-0.2 0.5-0.1 1-0.2 1.2 0 1.2 1.2 0 0.1 0 0.2 0 0.1 0 0.2-0.1 0.1-0.1 0.3 0 0.1 0 0.2l0.9-1.9q0.2 0 0.3 0 0.1 0.1 0.2 0.1 0.2 0 0.3 0 0.1 0 0.2 0 0.2 0 0.4 0 0.2 0 0.3 0 0.2 0 0.4-0.1 0.1 0 0.3 0l-3.4 5.7q-1.8 3-1.8 4c0 0.7 0.2 0.9 0.7 0.9q0.8 0 2.5-1.8 0.5-0.5 1-1 0.4-0.6 0.9-1.1 0.4-0.6 0.8-1.1 0.4-0.6 0.8-1.2 0.1-0.2 0.2-0.2c0.1 0 0.2 0 0.2 0.1zm-5.4-3.3c0-0.6-0.3-1-0.9-1q-1.8 0-4.7 3.6-2.9 3.5-2.9 5.6 0 1.3 1.1 1.3c0.8 0 2.5-1.5 4.7-4.5q2.7-3.6 2.7-5z"/>
	<path id="Layer" fill-rule="evenodd" class="s0" d="m161.2 23q-7.4 11.6-9.3 14.9-1.9 3.3-1.9 4.1 0 0.9 0.8 0.9 1.8 0 6-6.2 0.2-0.2 0.3-0.2c0 0 0.1 0 0.1 0.1q-0.1 0.1-0.1 0.1 0 0.1 0 0.1 0 0-0.1 0.1 0 0 0 0.1l-0.9 1.1q-3.7 5.1-5.4 5.1-0.2 0-0.4 0-0.2-0.1-0.4-0.1-0.2-0.1-0.4-0.3-0.2-0.1-0.3-0.3-0.1-0.1-0.2-0.3-0.2-0.3-0.2-0.5-0.1-0.2-0.1-0.4-0.1-0.3-0.1-0.5 0.1-0.3 0.1-0.6 0.1-0.3 0.2-0.7 0-0.3 0.2-0.6 0.1-0.3 0.3-0.5c-2.3 3.2-4 4.8-5.1 4.8q-0.3 0-0.5 0-0.3-0.1-0.5-0.2-0.2-0.1-0.4-0.3-0.2-0.2-0.4-0.4-0.1-0.2-0.3-0.5-0.1-0.2-0.2-0.5-0.1-0.3-0.1-0.6-0.1-0.3-0.1-0.6 0-3.2 4-5.8 3.2-2.1 5-2.1 1.2 0 1.2 1.1 0 0.2 0 0.3 0 0.2-0.1 0.4 0 0.1-0.1 0.3 0 0.1-0.1 0.3l7-11.7q0.2 0 0.3 0.1 0.2 0 0.3 0 0.2 0.1 0.4 0.1 0.1 0 0.3 0zm-9.4 10.5c0-0.7-0.3-1-1-1q-1.8 0-4.7 3.5-2.9 3.5-2.8 5.6 0 1.3 1 1.3 1.6 0 5.4-5.4 2.1-2.9 2.1-4z"/>
	<path id="Layer" class="s1" d="m82.1-30.7q-0.2-0.2-0.4-0.4-0.3-0.2-0.6-0.4-0.2-0.1-0.5-0.3-0.3-0.1-0.6-0.2-0.3-0.1-0.6-0.1-0.3-0.1-0.6-0.1-0.3 0-0.6 0.1-0.4 0-0.6 0.1-0.6 0.2-1.2 0.5-0.5 0.4-1 0.8-0.4 0.4-0.8 0.9-0.4 0.5-0.7 1c-0.9 1.4-1.6 3-2.5 4.4q-0.2 0.3-0.4 0.6-0.2 0.2-0.4 0.5-0.3 0.2-0.5 0.4-0.2 0.3-0.5 0.5-0.3 0.2-0.6 0.3-0.3 0.2-0.6 0.3-0.3 0.1-0.6 0.2-0.3 0.1-0.7 0.1-0.6 0-1.3-0.1-0.6-0.1-1.3-0.2-0.6-0.2-1.2-0.5-0.6-0.3-1.1-0.7c-1.5-0.9-2.8-1.9-4.3-2.8q-0.2-0.1-0.5-0.3-0.3-0.1-0.6-0.2-0.2-0.2-0.5-0.3-0.3-0.1-0.6-0.2-0.1 0-0.3-0.1-0.1 0-0.3 0-0.1-0.1-0.3-0.1-0.1 0-0.3 0-0.1 0-0.3 0-0.1 0-0.3 0-0.1 0-0.3 0-0.1 0-0.3 0-0.6 0.1-1.2 0.2-0.6 0.2-1.2 0.4-0.5 0.2-1.1 0.5-0.5 0.2-1 0.6c-2.9 1.6-5.5 4-8.6 5.5q-0.6 0.3-1.2 0.5-0.6 0.3-1.2 0.4-0.6 0.2-1.2 0.4-0.7 0.1-1.3 0.2c-1.7 0.2-3.4 0.3-5.1 0.4q-5.1 0.3-10.2 0.1c-3.4-0.1-6.8-0.3-10.1-0.7q5 0.4 10.1 0.4 5.1-0.1 10.2-0.4c3.3-0.3 6.8-0.3 9.7-1.9 3-1.6 5.5-3.8 8.5-5.6q0.5-0.3 1.1-0.6 0.6-0.3 1.2-0.5 0.6-0.2 1.3-0.4 0.6-0.1 1.3-0.2 0.1 0 0.3 0 0.2-0.1 0.3-0.1 0.2 0 0.4 0.1 0.1 0 0.3 0 0.2 0 0.3 0 0.2 0 0.4 0.1 0.1 0 0.3 0.1 0.2 0 0.3 0 0.3 0.2 0.6 0.3 0.3 0.1 0.6 0.2 0.3 0.2 0.6 0.3 0.3 0.2 0.6 0.4c1.4 0.9 2.8 1.9 4.2 2.8q0.5 0.3 1.1 0.6 0.5 0.3 1.1 0.5 0.6 0.2 1.2 0.3 0.6 0.1 1.2 0.1 0.6-0.1 1.2-0.3 0.5-0.3 1.1-0.6 0.5-0.3 0.9-0.8 0.4-0.4 0.7-1c0.9-1.3 1.6-3 2.6-4.3q0.3-0.6 0.7-1.1 0.5-0.5 1-0.9 0.5-0.4 1-0.7 0.6-0.3 1.2-0.5 0.3-0.1 0.6-0.1 0.3-0.1 0.7-0.1 0.3 0.1 0.6 0.1 0.3 0.1 0.6 0.2 0.3 0.1 0.6 0.3 0.3 0.1 0.5 0.3 0.3 0.2 0.6 0.4 0.2 0.2 0.4 0.4z"/>
	<path id="Layer" class="s1" d="m134.7-20.9c1.4-0.6 2.7-1.4 4-1.9q0.3-0.1 0.6-0.2 0.2-0.1 0.5-0.1 0.3-0.1 0.6-0.1 0.3 0 0.6 0 0.2 0 0.5 0.1 0.3 0 0.6 0.1 0.3 0.1 0.5 0.2 0.3 0.2 0.5 0.3c1.3 0.8 2.4 1.8 3.7 2.6q0.4 0.3 0.9 0.5 0.5 0.2 1 0.3 0.5 0.2 1 0.2 0.6 0 1.1-0.1 0.5-0.1 1-0.3 0.6-0.2 1.1-0.4 0.5-0.2 0.9-0.4 0.5-0.3 1-0.6c1.2-0.8 2.4-1.7 3.8-2.4q0.5-0.3 1-0.5 0.5-0.2 1.1-0.3 0.6-0.2 1.2-0.2 0.5-0.1 1.1-0.1 0.3 0.1 0.6 0.1 0.3 0.1 0.6 0.2 0.3 0.1 0.5 0.2 0.3 0.1 0.6 0.3 0.2 0.1 0.5 0.3 0.2 0.2 0.4 0.4 0.2 0.1 0.5 0.3 0.2 0.2 0.4 0.4 0.3 0.5 0.7 0.9 0.4 0.4 0.8 0.7 0.4 0.4 0.8 0.8 0.4 0.3 0.9 0.6 0.5 0.2 1 0.4 0.5 0.1 1 0.2 0.5 0.1 1.1 0 0.5 0 1-0.1 1.1-0.2 2.1-0.5 1.1-0.3 2.1-0.7 1-0.4 2-0.9 1-0.5 1.9-1.1 0.5-0.3 1-0.6 0.4-0.3 0.9-0.6 0.5-0.2 1-0.5 0.5-0.3 1-0.5 0.5-0.2 1-0.4 0.6-0.2 1.1-0.4 0.5-0.2 1.1-0.3 0.5-0.2 1.1-0.3 1.1-0.2 2.2-0.3 1.1-0.1 2.2-0.2 1.1 0 2.2 0 1.2 0 2.3 0-1.1 0-2.2 0.1-1.2 0-2.3 0.1-1.1 0.1-2.2 0.3-1.1 0.1-2.1 0.4-0.6 0.1-1.1 0.3-0.5 0.1-1.1 0.3-0.5 0.2-1 0.4-0.5 0.2-1 0.4-0.5 0.3-1 0.5-0.5 0.3-0.9 0.6-0.5 0.3-1 0.6-0.4 0.3-0.9 0.6-0.9 0.6-1.9 1.2-1 0.5-2.1 0.9-1 0.5-2.1 0.8-1.1 0.3-2.2 0.5-0.6 0.1-1.1 0.1-0.6 0-1.2 0-0.6-0.1-1.1-0.3-0.6-0.1-1.1-0.4-0.5-0.3-0.9-0.7-0.5-0.3-0.9-0.7-0.4-0.4-0.8-0.8-0.4-0.4-0.8-0.8-0.3-0.4-0.7-0.7-0.4-0.4-0.9-0.6-0.4-0.3-0.9-0.5-0.5-0.1-1-0.2-0.6 0-1.1 0-0.5 0.1-1.1 0.2-0.5 0.1-1 0.3-0.5 0.2-0.9 0.5c-2.6 1.3-4.9 3.5-8 4q-0.6 0.1-1.2 0.1-0.6-0.1-1.1-0.2-0.6-0.1-1.1-0.4-0.6-0.2-1-0.6c-1.3-0.8-2.4-1.9-3.6-2.7q-0.2-0.1-0.5-0.2-0.2-0.1-0.5-0.2-0.2-0.1-0.5-0.2-0.2-0.1-0.5-0.1-0.3 0-0.5 0-0.3 0-0.6 0.1-0.3 0-0.5 0.1-0.3 0-0.5 0.1c-1.5 0.4-2.8 1.1-4.2 1.7z"/>
	<path id="Layer" class="s1" d="m66.8 33.5c-1.4-0.5-2.8-1.1-4.2-1.5q-0.3-0.1-0.5-0.1-0.3-0.1-0.6-0.1-0.2 0-0.5 0-0.3 0-0.6 0-0.2 0.1-0.5 0.2-0.2 0-0.5 0.1-0.2 0.1-0.5 0.3-0.2 0.1-0.4 0.3c-1.2 0.9-2.2 2-3.4 2.9q-0.5 0.3-1 0.6-0.5 0.3-1 0.4-0.6 0.2-1.2 0.3-0.6 0-1.1 0c-3.2-0.3-5.6-2.5-8.2-3.6q-0.5-0.2-1-0.4-0.5-0.2-1.1-0.2-0.5-0.1-1-0.2-0.5 0-1.1 0.1-0.5 0.1-1 0.3-0.5 0.2-0.9 0.5-0.4 0.2-0.8 0.6-0.4 0.4-0.7 0.8-0.3 0.4-0.7 0.9-0.4 0.4-0.8 0.8-0.4 0.4-0.8 0.8-0.4 0.4-0.9 0.7-0.5 0.3-1.1 0.5-0.5 0.2-1.1 0.3-0.6 0.1-1.2 0.1-0.5 0-1.1-0.1-1.1-0.1-2.2-0.4-1.2-0.2-2.2-0.6-1.1-0.3-2.1-0.8-1-0.5-2-1.1-0.5-0.3-1-0.5-0.4-0.3-0.9-0.6-0.5-0.2-1-0.5-0.5-0.2-1-0.4-0.5-0.3-1.1-0.4-0.5-0.2-1-0.4-0.5-0.1-1.1-0.2-0.5-0.2-1-0.2-1.1-0.2-2.3-0.3-1.1-0.1-2.2-0.2-1.1 0-2.2 0-1.1 0-2.2 0.1 1.1-0.1 2.2-0.2 1.1 0 2.2 0 1.2 0 2.3 0 1.1 0.1 2.2 0.2 0.6 0.1 1.1 0.2 0.5 0.1 1.1 0.2 0.5 0.2 1.1 0.3 0.5 0.2 1 0.4 0.5 0.2 1 0.5 0.5 0.2 1 0.4 0.5 0.3 1 0.6 0.5 0.2 1 0.5 1 0.6 2 1 1 0.4 2 0.8 1 0.3 2.1 0.6 1.1 0.2 2.2 0.3 0.5 0.1 1 0.1 0.6 0 1.1-0.1 0.5-0.1 1-0.3 0.5-0.2 1-0.4 0.4-0.3 0.8-0.7 0.4-0.4 0.8-0.8 0.3-0.3 0.7-0.8 0.3-0.4 0.7-0.8 0.1-0.2 0.3-0.4 0.2-0.3 0.5-0.5 0.2-0.2 0.4-0.3 0.2-0.2 0.4-0.4 0.3-0.2 0.6-0.3 0.2-0.1 0.5-0.2 0.3-0.1 0.6-0.2 0.3-0.1 0.6-0.2 0.5 0 1.1 0 0.6 0 1.2 0.2 0.5 0.1 1.1 0.2 0.5 0.2 1.1 0.5c1.4 0.6 2.6 1.4 3.9 2.1q0.5 0.3 1 0.5 0.4 0.3 0.9 0.4 0.5 0.2 1.1 0.4 0.5 0.1 1 0.2 0.5 0.1 1.1 0 0.5 0 1-0.2 0.5-0.1 1-0.4 0.5-0.2 0.9-0.5c1.2-0.9 2.2-2 3.5-2.8q0.2-0.2 0.5-0.3 0.2-0.2 0.5-0.3 0.3-0.1 0.5-0.1 0.3-0.1 0.6-0.2 0.3 0 0.6 0 0.3 0 0.5 0.1 0.3 0 0.6 0.1 0.3 0 0.5 0.1c1.6 0.5 2.9 1.1 4.3 1.7z"/>
	<path id="Layer" class="s1" d="m153 41.8q0.5-0.5 0.9-1.1 0.5-0.6 0.9-1.2 0.4-0.5 0.8-1.1 0.4-0.6 0.8-1.2l0.2-0.4q0 0 0.1 0 0-0.1 0.1-0.1 0 0 0.1-0.1 0 0 0.1 0 0.1 0 0.2 0.1 0.1 0 0.2 0 0.1 0.1 0.1 0.1 0.1 0.1 0.2 0.1c0.4 0.3 0.7 0.7 1.1 1 0.8 0.6 1.5 1.2 2.2 1.9q0.5 0.5 1 1 0.6 0.4 1.1 0.9 0.6 0.4 1.2 0.8 0.6 0.4 1.2 0.8 0.6 0.4 1.3 0.6 0.6 0.3 1.3 0.4 0.7 0.1 1.4 0 0.7 0 1.4-0.1c1.8-0.6 3-2.2 4.8-3.1q0.7-0.3 1.4-0.5 0.8-0.2 1.5-0.3 0.8 0 1.5 0 0.8 0.1 1.5 0.4 0.4 0.1 0.7 0.2 0.4 0.1 0.7 0.3 0.4 0.2 0.7 0.4 0.3 0.2 0.6 0.4c0.8 0.7 1.4 1.4 2.1 2q0.6 0.5 1.2 0.8 0.6 0.4 1.2 0.6 0.7 0.3 1.4 0.4 0.7 0.1 1.4 0.2c3.7 0.2 7.1-2.7 11.2-2.5q0.7 0 1.4 0.1 0.8 0.1 1.5 0.2 0.7 0.2 1.4 0.4 0.7 0.1 1.4 0.4c1.9 0.6 3.7 1.1 5.6 1.6q2.8 0.6 5.7 1 2.9 0.4 5.8 0.5 2.9 0 5.8-0.1 2.8-0.2 5.7-0.7-2.9 0.6-5.7 0.9-2.9 0.2-5.9 0.2-2.9 0-5.8-0.3-2.9-0.4-5.7-1c-1.9-0.4-3.8-1-5.6-1.5q-0.7-0.2-1.4-0.4-0.7-0.2-1.4-0.3-0.7-0.2-1.4-0.2-0.7-0.1-1.4-0.2-0.7 0.1-1.4 0.2-0.7 0-1.4 0.2-0.7 0.2-1.4 0.4-0.6 0.2-1.3 0.5-0.7 0.3-1.4 0.6-0.7 0.2-1.4 0.4-0.7 0.1-1.5 0.2-0.7 0.1-1.4 0.1-0.8 0-1.5-0.2-0.8-0.1-1.5-0.4-0.7-0.3-1.3-0.7-0.7-0.3-1.3-0.8c-0.8-0.7-1.4-1.4-2.1-2q-0.3-0.2-0.6-0.4-0.3-0.2-0.6-0.4-0.3-0.1-0.6-0.3-0.3-0.1-0.6-0.2-0.7-0.2-1.4-0.3-0.7-0.1-1.4 0-0.7 0-1.4 0.2-0.6 0.2-1.3 0.5c-1.6 0.7-2.9 2.4-4.9 3q-0.8 0.1-1.5 0.2-0.8 0-1.5-0.2-0.7-0.1-1.5-0.4-0.7-0.2-1.3-0.6-0.6-0.4-1.2-0.8-0.6-0.5-1.2-0.9-0.5-0.5-1.1-1-0.5-0.5-1-1-1-1-2.1-2c-0.4-0.3-0.7-0.7-1.1-1q-0.1-0.1-0.1-0.1-0.1-0.1-0.2-0.1 0 0-0.1-0.1-0.1 0-0.2 0c-0.2 0-0.3 0.3-0.4 0.4q-0.4 0.7-0.9 1.3-0.4 0.6-0.8 1.1-0.5 0.6-0.9 1.2-0.5 0.6-1 1.1z"/>
</svg>